<?xml version="1.0" encoding="UTF-8"?>
<!DOCTYPE svg PUBLIC "-//W3C//DTD SVG 1.1//EN" "http://www.w3.org/Graphics/SVG/1.1/DTD/svg11.dtd">
<!-- Creator: CorelDRAW 2020 (64-Bit) -->
<svg xmlns="http://www.w3.org/2000/svg" xml:space="preserve" width="54.1866mm" height="54.1866mm" version="1.1" style="shape-rendering:geometricPrecision; text-rendering:geometricPrecision; image-rendering:optimizeQuality; fill-rule:evenodd; clip-rule:evenodd"
viewBox="0 0 5418.66 5418.66"
 xmlns:xlink="http://www.w3.org/1999/xlink"
 xmlns:xodm="http://www.corel.com/coreldraw/odm/2003">
 <defs>
  <style type="text/css">
   <![CDATA[
    .fil2 {fill:#A0D9F6}
    .fil1 {fill:#72C9F2}
    .fil0 {fill:#008FD7}
   ]]>
  </style>
 </defs>
 <g id="图层_x0020_1">
  <metadata id="CorelCorpID_0Corel-Layer"/>
  <rect class="fil0" width="5418.66" height="5418.66" rx="846.67" ry="846.67"/>
  <g id="_1077015360">
   <polygon class="fil1" points="762.15,2279.44 2258.58,2282.26 2710.16,2903.81 1979.49,3141.22 "/>
   <polygon class="fil2" points="762.15,2279.99 2710.16,2904.36 1979.49,3141.77 "/>
   <polygon class="fil1" points="2705.96,858.19 3164.72,2284.23 2710.16,2903.81 2259.79,2281.39 "/>
   <polygon class="fil2" points="2705.44,858.36 2709.64,2903.98 2259.26,2281.56 "/>
   <polygon class="fil1" points="4656.51,2274.26 3439.57,3145.1 2710.16,2903.81 3165.04,2284.67 "/>
   <polygon class="fil2" points="4656.19,2273.81 2709.84,2903.36 3164.72,2284.23 "/>
   <polygon class="fil1" points="3910.21,4560.46 2706.02,3672.08 2710.16,2903.81 3439.54,3145.17 "/>
   <polygon class="fil2" points="3910.54,4560.01 2710.49,2903.37 3439.87,3144.72 "/>
   <polygon class="fil1" points="1507,4558.2 1978.44,3137.97 2710.16,2903.81 2706.74,3672.08 "/>
   <polygon class="fil2" points="1507.52,4558.37 2710.69,2903.98 2707.26,3672.25 "/>
  </g>
 </g>
</svg>
